<svg xmlns="http://www.w3.org/2000/svg" viewBox="0 0 24 24" aria-hidden="true">
  <path fill="#315cff" d="M8.1 7.4c1.1-.2 1.7-1.8 1.4-3.4S8.1 1.3 7 1.5 5.3 3.3 5.6 4.9s1.4 2.7 2.5 2.5z"/>
  <path fill="#315cff" d="M15.9 7.4c1.1.2 2.2-.9 2.5-2.5s-.3-3.2-1.4-3.4-2.2.9-2.5 2.5.3 3.2 1.4 3.4z"/>
  <path fill="#315cff" d="M4.3 11.5c1 .6 2.4-.1 3.1-1.4s.5-2.9-.5-3.4-2.4.1-3.1 1.4-.5 2.8.5 3.4z"/>
  <path fill="#315cff" d="M19.7 11.5c1-.6 1.2-2.1.5-3.4s-2.1-2-3.1-1.4-1.2 2.1-.5 3.4 2.1 2 3.1 1.4z"/>
  <path fill="#315cff" d="M12 9.1c-3.5 0-6.4 2.7-6.4 6.1 0 3.1 2.4 5.4 6.4 5.4s6.4-2.3 6.4-5.4c0-3.4-2.9-6.1-6.4-6.1z"/>
  <path fill="#fff" d="M10.2 15.5c.5 0 .9-.4.9-.9s-.4-.9-.9-.9-.9.4-.9.9.4.9.9.9zm3.6 0c.5 0 .9-.4.9-.9s-.4-.9-.9-.9-.9.4-.9.9.4.9.9.9z"/>
</svg>
